<svg xmlns="http://www.w3.org/2000/svg" xmlns:xlink="http://www.w3.org/1999/xlink" aria-hidden="true" focusable="false" width="1em" height="1em" style="-ms-transform: rotate(360deg); -webkit-transform: rotate(360deg); transform: rotate(360deg);" preserveAspectRatio="xMidYMid meet" viewBox="0 0 24 24"><path d="M9 5v5H7V6H5v4H3V8H1v12h2v-2h2v2h2v-2h2v2h2v-2h2v2h2v-2h2v2h2v-2h2v2h2V8h-2v2h-2V6h-2v4h-2V5h-2v5h-2V5H9m-6 7h2v4H3v-4m4 0h2v4H7v-4m4 0h2v4h-2v-4m4 0h2v4h-2v-4m4 0h2v4h-2v-4z" fill="#b9bbbe"/></svg>