<svg width="24" height="24" viewBox="0 0 24 24" fill="none" xmlns="http://www.w3.org/2000/svg"><path d="M20.726 8.42512L18.1179 6.78514L17.1704 6.18665L15.2803 5.02016L14.3383 4.40216L12.2243 3.07118L12.1143 3.02618C12.0142 2.99127 11.9053 2.99127 11.8052 3.02618L11.7502 3.05118L9.61118 4.40216L8.66866 5.02016L6.7796 6.18665L5.83158 6.78514L3.22451 8.42512C3.15612 8.46679 3.09956 8.5253 3.06025 8.59508C3.02095 8.66485 3.0002 8.74354 3 8.82362V19.5315C3.00765 19.6584 3.06346 19.7775 3.15603 19.8646C3.24859 19.9517 3.37092 20.0001 3.49801 20H20.5015C20.6287 20.0002 20.7511 19.9518 20.8438 19.8648C20.9365 19.7777 20.9923 19.6584 21 19.5315V8.82362C20.9949 8.73856 20.9667 8.6565 20.9184 8.58628C20.8701 8.51607 20.8036 8.46035 20.726 8.42512ZM3.94203 19.058V9.08811L5.83208 7.89663V19.058H3.94203V19.058ZM6.77911 19.058V7.30313L8.66916 6.11215V19.073L6.77911 19.058V19.058ZM9.61118 5.51865L11.5012 4.32766V19.0575H9.61118V5.51915V5.51865ZM12.4733 19.058V4.32766L14.3383 5.51865V19.058H12.4733ZM15.3058 19.058V6.09715L17.1959 7.28863V19.058H15.3058ZM20.0325 19.058H18.1179V7.89663L20.008 9.08811L20.033 19.058H20.0325Z" fill="#b9bbbe"/></svg>
